<svg id="Ebene_1" data-name="Ebene 1" xmlns="http://www.w3.org/2000/svg" viewBox="0 0 649.34 472.06"><defs><style>.cls-1{fill:#d90f1b;}.cls-2{fill:#ffc000;}</style></defs><title>Upload</title><path class="cls-1" d="M203.11,438.71c0,25-15.4,37.57-38.27,37.57-23.57,0-38-12.6-38-37.33V294.28h30.8V442c0,6.77,3.5,10.27,8.87,10.27,4.9,0,7-3.5,7-10.5V294.28h29.63Z" transform="translate(-77.66 -291.25)"/><path class="cls-1" d="M272.4,409.31h-7v64.16h-31V294.28h36.87c26.6,0,39.67,14.23,39.67,56.7C310.9,395.78,294.33,409.31,272.4,409.31ZM268.66,319H265.4v65.56h3.5c7,0,11.67-7,11.67-33.83C280.56,325.78,276.36,319,268.66,319Z" transform="translate(-77.66 -291.25)"/><path class="cls-1" d="M401.88,473.94h-63V294.28h31V448.51h32Z" transform="translate(-77.66 -291.25)"/><path class="cls-1" d="M503.37,436.61c0,29.4-17.5,39.67-38.27,39.67-21.23,0-39.2-11-39.2-39.67V330.91c0-29.16,18.2-39.66,39.2-39.66s38.27,10.27,38.27,39.66Zm-30.8-111.76c0-7-4-9.8-7.7-9.8-4.67,0-7.93,2.8-7.93,9.8v117.6c0,6.77,3,9.8,8.17,9.8,4.67,0,7.47-2.8,7.47-9.57Z" transform="translate(-77.66 -291.25)"/><path class="cls-1" d="M609.05,473.47H577.79l-2.33-25H557l-2.33,25h-25.9l23.1-179.19h33.37Zm-36.63-49.93-5.6-71.4-7.23,71.4Z" transform="translate(-77.66 -291.25)"/><path class="cls-1" d="M714,435.91c0,28.47-14.47,37.57-39,37.57H636.34V294.28h38c25.9,0,39.67,9.8,39.67,40.6ZM683,331.61c0-10.27-3-12.6-9.57-12.6h-6.07V448.74H673c7.47,0,10-3,10-11.43Z" transform="translate(-77.66 -291.25)"/><path class="cls-2" d="M216.07,448.43c0,25-15.4,37.57-38.27,37.57-23.57,0-38-12.6-38-37.33V304h30.8V451.7c0,6.77,3.5,10.27,8.87,10.27,4.9,0,7-3.5,7-10.5V304h29.63Z" transform="translate(-77.66 -291.25)"/><path class="cls-2" d="M285.36,419h-7V483.2h-31V304h36.87c26.6,0,39.67,14.23,39.67,56.7C323.86,405.5,307.29,419,285.36,419Zm-3.73-90.3h-3.27V394.3h3.5c7,0,11.67-7,11.67-33.83C293.53,335.5,289.32,328.74,281.63,328.74Z" transform="translate(-77.66 -291.25)"/><path class="cls-2" d="M414.84,483.66h-63V304h31V458.23h32Z" transform="translate(-77.66 -291.25)"/><path class="cls-2" d="M516.33,446.33c0,29.4-17.5,39.67-38.27,39.67-21.23,0-39.2-11-39.2-39.67V340.63c0-29.16,18.2-39.66,39.2-39.66s38.27,10.27,38.27,39.66Zm-30.8-111.76c0-7-4-9.8-7.7-9.8-4.67,0-7.93,2.8-7.93,9.8v117.6c0,6.77,3,9.8,8.17,9.8,4.67,0,7.47-2.8,7.47-9.57Z" transform="translate(-77.66 -291.25)"/><path class="cls-2" d="M622,483.2H590.75l-2.33-25H570l-2.33,25h-25.9L564.85,304h33.37Zm-36.63-49.93-5.6-71.4-7.23,71.4Z" transform="translate(-77.66 -291.25)"/><path class="cls-2" d="M727,445.63c0,28.47-14.47,37.57-39,37.57H649.3V304h38c25.9,0,39.67,9.8,39.67,40.6ZM696,341.33c0-10.27-3-12.6-9.57-12.6h-6.07V458.46h5.6c7.47,0,10-3,10-11.43Z" transform="translate(-77.66 -291.25)"/><text x="-77.66" y="-291.25"></text></svg>